<svg xmlns="http://www.w3.org/2000/svg" xmlns:xlink="http://www.w3.org/1999/xlink" viewBox="0,0,256,256" width="24px" height="24px"><g fill="#7f7d7d" fill-rule="nonzero" stroke="none" stroke-width="1" stroke-linecap="butt" stroke-linejoin="miter" stroke-miterlimit="10" stroke-dasharray="" stroke-dashoffset="0" font-family="none" font-weight="none" font-size="none" text-anchor="none" style="mix-blend-mode: normal"><g transform="scale(10.66667,10.66667)"><circle cx="12" cy="12" r="10" opacity="0.35"></circle><path d="M17,13h-10c-0.552,0 -1,-0.448 -1,-1v0c0,-0.552 0.448,-1 1,-1h10c0.552,0 1,0.448 1,1v0c0,0.552 -0.448,1 -1,1z"></path><path d="M11,17v-10c0,-0.552 0.448,-1 1,-1v0c0.552,0 1,0.448 1,1v10c0,0.552 -0.448,1 -1,1v0c-0.552,0 -1,-0.448 -1,-1z"></path></g></g></svg>